<svg xmlns="http://www.w3.org/2000/svg" xmlns:xlink="http://www.w3.org/1999/xlink" width="1080" zoomAndPan="magnify" viewBox="0 0 810 809.999993" height="1080" preserveAspectRatio="xMidYMid meet" version="1.0"><defs><g/><clipPath id="69b10d158c"><path d="M 527 330 L 635 330 L 635 478 L 527 478 Z M 527 330 " clip-rule="nonzero"/></clipPath><clipPath id="55f67349a0"><path d="M 487.53125 340.078125 L 621.585938 307.320312 L 662.355469 474.160156 L 528.300781 506.921875 Z M 487.53125 340.078125 " clip-rule="nonzero"/></clipPath><clipPath id="8688c1d5fe"><path d="M 417.976562 250.863281 L 651.117188 193.890625 L 740.492188 559.628906 L 507.351562 616.601562 Z M 417.976562 250.863281 " clip-rule="nonzero"/></clipPath><clipPath id="d25a2b09d1"><path d="M 405.796875 491.933594 L 433.890625 491.933594 L 433.890625 540.507812 L 405.796875 540.507812 Z M 405.796875 491.933594 " clip-rule="nonzero"/></clipPath><clipPath id="85d4b58dc8"><path d="M 405.914062 491.949219 L 428.871094 540.417969 L 433.75 530.371094 L 415.410156 491.949219 Z M 405.914062 491.949219 " clip-rule="nonzero"/></clipPath><clipPath id="83454a11b1"><path d="M 0.839844 0.933594 L 28.890625 0.933594 L 28.890625 49.480469 L 0.839844 49.480469 Z M 0.839844 0.933594 " clip-rule="nonzero"/></clipPath><clipPath id="fdb15ca8a3"><path d="M 0.914062 0.949219 L 23.871094 49.417969 L 28.75 39.371094 L 10.410156 0.949219 Z M 0.914062 0.949219 " clip-rule="nonzero"/></clipPath><clipPath id="1905c82699"><rect x="0" width="29" y="0" height="50"/></clipPath><clipPath id="87d13e720b"><path d="M 402.175781 489.578125 L 436.246094 489.578125 L 436.246094 545.945312 L 402.175781 545.945312 Z M 402.175781 489.578125 " clip-rule="nonzero"/></clipPath><clipPath id="b0206b955f"><path d="M 428.859375 542.09375 L 428.777344 541.921875 L 404.769531 491.222656 L 415.867188 491.222656 L 415.964844 491.429688 L 434.554688 530.375 Z M 402.175781 489.578125 L 428.796875 545.945312 L 436.246094 530.121094 L 417.15625 489.578125 Z M 402.175781 489.578125 " clip-rule="nonzero"/></clipPath><clipPath id="d90a54c804"><path d="M 0.175781 0.578125 L 34.246094 0.578125 L 34.246094 56.945312 L 0.175781 56.945312 Z M 0.175781 0.578125 " clip-rule="nonzero"/></clipPath><clipPath id="59fec27571"><path d="M 26.859375 53.09375 L 26.777344 52.921875 L 2.769531 2.222656 L 13.867188 2.222656 L 13.964844 2.429688 L 32.554688 41.375 Z M 0.175781 0.578125 L 26.796875 56.945312 L 34.246094 41.121094 L 15.15625 0.578125 Z M 0.175781 0.578125 " clip-rule="nonzero"/></clipPath><clipPath id="af404b040b"><rect x="0" width="35" y="0" height="57"/></clipPath><clipPath id="d04f94d9cf"><path d="M 424.648438 489.578125 L 456 489.578125 L 456 536.15625 L 424.648438 536.15625 Z M 424.648438 489.578125 " clip-rule="nonzero"/></clipPath><clipPath id="fa81cf56b0"><path d="M 433.324219 509.109375 L 441.820312 491.222656 L 453.136719 491.222656 L 453.078125 491.351562 L 439.003906 521.265625 Z M 455.832031 489.578125 L 440.683594 489.578125 L 432.339844 507.015625 L 424.777344 496.050781 L 443.863281 536.148438 L 439.925781 522.753906 Z M 455.832031 489.578125 " clip-rule="nonzero"/></clipPath><clipPath id="b7cee5f4c6"><path d="M 0.648438 0.578125 L 32 0.578125 L 32 47.15625 L 0.648438 47.15625 Z M 0.648438 0.578125 " clip-rule="nonzero"/></clipPath><clipPath id="7e60cc9b62"><path d="M 9.324219 20.109375 L 17.820312 2.222656 L 29.136719 2.222656 L 29.078125 2.351562 L 15.003906 32.265625 Z M 31.832031 0.578125 L 16.683594 0.578125 L 8.339844 18.015625 L 0.777344 7.050781 L 19.863281 47.148438 L 15.925781 33.753906 Z M 31.832031 0.578125 " clip-rule="nonzero"/></clipPath><clipPath id="55c8fc4b51"><rect x="0" width="32" y="0" height="48"/></clipPath><clipPath id="3e73905fa7"><path d="M 434.074219 491.933594 L 452 491.933594 L 452 519.664062 L 434.074219 519.664062 Z M 434.074219 491.933594 " clip-rule="nonzero"/></clipPath><clipPath id="fd1809e6ff"><path d="M 439.007812 519.558594 L 451.996094 491.949219 L 442.277344 491.949219 L 434.125 509.109375 Z M 439.007812 519.558594 " clip-rule="nonzero"/></clipPath><clipPath id="51a491f062"><path d="M 0.0742188 0.933594 L 18 0.933594 L 18 28.601562 L 0.0742188 28.601562 Z M 0.0742188 0.933594 " clip-rule="nonzero"/></clipPath><clipPath id="711d86b6cf"><path d="M 5.007812 28.558594 L 17.996094 0.949219 L 8.277344 0.949219 L 0.125 18.109375 Z M 5.007812 28.558594 " clip-rule="nonzero"/></clipPath><clipPath id="072766574e"><rect x="0" width="18" y="0" height="29"/></clipPath><clipPath id="b4226ed311"><path d="M 0.121094 9 L 19 9 L 19 27 L 0.121094 27 Z M 0.121094 9 " clip-rule="nonzero"/></clipPath><clipPath id="be24932468"><rect x="0" width="189" y="0" height="37"/></clipPath><clipPath id="a9254bf1aa"><rect x="0" width="119" y="0" height="133"/></clipPath><clipPath id="16e1c18e66"><rect x="0" width="28" y="0" height="30"/></clipPath></defs><g clip-path="url(#69b10d158c)"><g clip-path="url(#55f67349a0)"><g clip-path="url(#8688c1d5fe)"><path fill="#ffc60a" d="M 626.398438 376.167969 C 624.929688 360.109375 611.101562 354.667969 593.617188 353.050781 L 593.722656 330.789062 L 580.171875 330.726562 L 580.074219 352.398438 C 576.511719 352.378906 572.871094 352.433594 569.246094 352.488281 L 569.351562 330.667969 L 555.808594 330.605469 L 555.703125 352.859375 C 552.773438 352.902344 549.890625 352.945312 547.078125 352.933594 L 547.078125 352.867188 L 528.394531 352.777344 L 528.332031 367.246094 C 528.332031 367.246094 538.339844 367.101562 538.171875 367.285156 C 543.65625 367.3125 545.429688 370.507812 545.9375 373.261719 L 545.820312 398.625 C 546.203125 398.632812 546.695312 398.644531 547.253906 398.722656 C 546.804688 398.714844 546.324219 398.71875 545.820312 398.714844 L 545.648438 434.246094 C 545.398438 435.972656 544.371094 438.71875 540.542969 438.710938 C 540.710938 438.867188 530.691406 438.664062 530.691406 438.664062 L 527.921875 454.835938 L 545.554688 454.921875 C 548.832031 454.941406 552.066406 455.011719 555.230469 455.042969 L 555.132812 477.558594 L 568.664062 477.625 L 568.765625 455.347656 C 572.484375 455.441406 576.078125 455.492188 579.59375 455.503906 L 579.484375 477.675781 L 593.03125 477.738281 L 593.140625 455.257812 C 615.929688 454.058594 631.902344 448.398438 633.984375 427.011719 C 635.660156 409.796875 627.597656 402.070312 614.675781 398.90625 C 622.550781 394.941406 627.496094 387.914062 626.398438 376.167969 Z M 607.214844 424.222656 C 607.140625 441.046875 578.347656 439 569.15625 438.96875 L 569.300781 409.140625 C 578.484375 409.183594 607.292969 406.675781 607.214844 424.222656 Z M 601.105469 382.105469 C 601.035156 397.414062 577.011719 395.519531 569.367188 395.480469 L 569.496094 368.425781 C 577.144531 368.460938 601.183594 366.140625 601.113281 382.105469 Z M 601.105469 382.105469 " fill-opacity="1" fill-rule="nonzero"/></g></g></g><g fill="#ffc60a" fill-opacity="1"><g transform="translate(126.210371, 454.387087)"><g><path d="M 4.03125 0 L 4.03125 -12.765625 L 14.78125 -12.765625 L 14.78125 -88.0625 L 4.03125 -88.0625 L 4.03125 -100.828125 L 51.765625 -100.828125 L 51.765625 -88.0625 L 36.96875 -88.0625 L 36.96875 -14.109375 L 63.1875 -14.109375 L 63.1875 -32.9375 L 79.984375 -32.9375 L 79.984375 0 Z M 4.03125 0 "/></g></g></g><g fill="#ffc60a" fill-opacity="1"><g transform="translate(211.847249, 454.387087)"><g><path d="M 100.828125 -12.765625 L 100.828125 0 L 53.78125 0 L 53.78125 -12.765625 L 66.953125 -12.765625 L 61.296875 -29.578125 L 26.484375 -29.578125 L 21.375 -12.765625 L 32.9375 -12.765625 L 32.9375 0 L -4.03125 0 L -4.03125 -12.765625 L 4.96875 -12.765625 L 34.8125 -100.828125 L 60.359375 -100.828125 L 91.015625 -12.765625 Z M 43.015625 -84.5625 L 30.25 -42.34375 L 57.140625 -42.34375 Z M 43.015625 -84.5625 "/></g></g></g><g fill="#ffc60a" fill-opacity="1"><g transform="translate(310.927879, 454.387087)"><g><path d="M 4.03125 -88.0625 L 4.03125 -100.828125 L 52.4375 -100.828125 C 66.863281 -100.828125 78.195312 -96.4375 86.4375 -87.65625 C 94.6875 -78.875 98.8125 -66.460938 98.8125 -50.421875 C 98.8125 -34.367188 94.6875 -21.953125 86.4375 -13.171875 C 78.195312 -4.390625 66.863281 0 52.4375 0 L 4.03125 0 L 4.03125 -12.765625 L 14.78125 -12.765625 L 14.78125 -88.0625 Z M 36.96875 -14.109375 L 48.390625 -14.109375 C 57.535156 -14.109375 64.414062 -17.3125 69.03125 -23.71875 C 73.644531 -30.132812 75.953125 -39.035156 75.953125 -50.421875 C 75.953125 -61.796875 73.644531 -70.6875 69.03125 -77.09375 C 64.414062 -83.507812 57.535156 -86.71875 48.390625 -86.71875 L 36.96875 -86.71875 Z M 36.96875 -14.109375 "/></g></g></g><g fill="#ffc60a" fill-opacity="1"><g transform="translate(416.061919, 454.387087)"><g/></g></g><g clip-path="url(#d25a2b09d1)"><g clip-path="url(#85d4b58dc8)"><g transform="matrix(1, 0, 0, 1, 405, 491)"><g clip-path="url(#1905c82699)"><g clip-path="url(#83454a11b1)"><g clip-path="url(#fdb15ca8a3)"><rect x="-583.2" width="1166.4" fill="#ffffff" height="1166.39999" y="-669.199998" fill-opacity="1"/></g></g></g></g></g></g><g clip-path="url(#87d13e720b)"><g clip-path="url(#b0206b955f)"><g transform="matrix(1, 0, 0, 1, 402, 489)"><g clip-path="url(#af404b040b)"><g clip-path="url(#d90a54c804)"><g clip-path="url(#59fec27571)"><rect x="-580.2" width="1166.4" fill="#ffffff" height="1166.39999" y="-667.199998" fill-opacity="1"/></g></g></g></g></g></g><g clip-path="url(#d04f94d9cf)"><g clip-path="url(#fa81cf56b0)"><g transform="matrix(1, 0, 0, 1, 424, 489)"><g clip-path="url(#55c8fc4b51)"><g clip-path="url(#b7cee5f4c6)"><g clip-path="url(#7e60cc9b62)"><rect x="-602.2" width="1166.4" fill="#ffffff" height="1166.39999" y="-667.199998" fill-opacity="1"/></g></g></g></g></g></g><g clip-path="url(#3e73905fa7)"><g clip-path="url(#fd1809e6ff)"><g transform="matrix(1, 0, 0, 1, 434, 491)"><g clip-path="url(#072766574e)"><g clip-path="url(#51a491f062)"><g clip-path="url(#711d86b6cf)"><rect x="-612.2" width="1166.4" fill="#ffffff" height="1166.39999" y="-669.199998" fill-opacity="1"/></g></g></g></g></g></g><g transform="matrix(1, 0, 0, 1, 447, 510)"><g clip-path="url(#be24932468)"><g clip-path="url(#b4226ed311)"><g fill="#ffffff" fill-opacity="1"><g transform="translate(0.288467, 26.684639)"><g><path d="M 0.21875 0 L 7.046875 -17.203125 L 10.890625 -17.203125 L 17.71875 0 L 13.546875 0 L 12.390625 -2.96875 L 5.546875 -2.96875 L 4.40625 0 Z M 6.5625 -6.046875 L 11.40625 -6.046875 L 8.96875 -12.34375 Z M 6.5625 -6.046875 "/></g></g></g></g><g fill="#ffffff" fill-opacity="1"><g transform="translate(18.588518, 26.684639)"><g><path d="M 9.09375 0.34375 C 7.601562 0.34375 6.320312 0.046875 5.25 -0.546875 C 4.175781 -1.148438 3.347656 -2.003906 2.765625 -3.109375 C 2.179688 -4.210938 1.890625 -5.535156 1.890625 -7.078125 L 1.890625 -17.203125 L 5.796875 -17.203125 L 5.796875 -7.34375 C 5.796875 -4.695312 6.894531 -3.375 9.09375 -3.375 C 11.289062 -3.375 12.390625 -4.695312 12.390625 -7.34375 L 12.390625 -17.203125 L 16.296875 -17.203125 L 16.296875 -7.078125 C 16.296875 -5.535156 16.003906 -4.210938 15.421875 -3.109375 C 14.835938 -2.003906 14.007812 -1.148438 12.9375 -0.546875 C 11.863281 0.046875 10.582031 0.34375 9.09375 0.34375 Z M 9.09375 0.34375 "/></g></g></g><g fill="#ffffff" fill-opacity="1"><g transform="translate(37.134207, 26.684639)"><g><path d="M 2.0625 0 L 2.0625 -17.203125 L 5.96875 -17.203125 L 5.96875 -3.65625 L 13.5 -3.65625 L 13.5 0 Z M 2.0625 0 "/></g></g></g><g fill="#ffffff" fill-opacity="1"><g transform="translate(51.651459, 26.684639)"><g><path d="M 6.1875 0 L 6.1875 -13.546875 L 0.734375 -13.546875 L 0.734375 -17.203125 L 15.5625 -17.203125 L 15.5625 -13.546875 L 10.109375 -13.546875 L 10.109375 0 Z M 6.1875 0 "/></g></g></g><g fill="#ffffff" fill-opacity="1"><g transform="translate(68.30575, 26.684639)"><g/></g></g><g fill="#ffffff" fill-opacity="1"><g transform="translate(74.4468, 26.684639)"><g><path d="M 9.953125 0.34375 C 8.210938 0.34375 6.671875 -0.0351562 5.328125 -0.796875 C 3.984375 -1.554688 2.9375 -2.609375 2.1875 -3.953125 C 1.4375 -5.296875 1.0625 -6.847656 1.0625 -8.609375 C 1.0625 -10.359375 1.4375 -11.90625 2.1875 -13.25 C 2.9375 -14.59375 3.976562 -15.644531 5.3125 -16.40625 C 6.65625 -17.164062 8.191406 -17.546875 9.921875 -17.546875 C 11.378906 -17.546875 12.710938 -17.265625 13.921875 -16.703125 C 15.140625 -16.148438 16.160156 -15.363281 16.984375 -14.34375 C 17.816406 -13.332031 18.398438 -12.140625 18.734375 -10.765625 L 14.703125 -10.765625 C 14.367188 -11.710938 13.785156 -12.460938 12.953125 -13.015625 C 12.117188 -13.566406 11.148438 -13.84375 10.046875 -13.84375 C 9.085938 -13.84375 8.222656 -13.617188 7.453125 -13.171875 C 6.691406 -12.734375 6.097656 -12.117188 5.671875 -11.328125 C 5.242188 -10.546875 5.03125 -9.640625 5.03125 -8.609375 C 5.03125 -7.566406 5.242188 -6.648438 5.671875 -5.859375 C 6.097656 -5.078125 6.6875 -4.46875 7.4375 -4.03125 C 8.195312 -3.59375 9.0625 -3.375 10.03125 -3.375 C 11.15625 -3.375 12.144531 -3.660156 13 -4.234375 C 13.851562 -4.816406 14.460938 -5.601562 14.828125 -6.59375 L 18.84375 -6.59375 C 18.570312 -5.195312 18.015625 -3.976562 17.171875 -2.9375 C 16.335938 -1.894531 15.300781 -1.085938 14.0625 -0.515625 C 12.832031 0.0546875 11.460938 0.34375 9.953125 0.34375 Z M 9.953125 0.34375 "/></g></g></g><g fill="#ffffff" fill-opacity="1"><g transform="translate(94.63825, 26.684639)"><g><path d="M 0.21875 0 L 7.046875 -17.203125 L 10.890625 -17.203125 L 17.71875 0 L 13.546875 0 L 12.390625 -2.96875 L 5.546875 -2.96875 L 4.40625 0 Z M 6.5625 -6.046875 L 11.40625 -6.046875 L 8.96875 -12.34375 Z M 6.5625 -6.046875 "/></g></g></g><g fill="#ffffff" fill-opacity="1"><g transform="translate(112.9383, 26.684639)"><g><path d="M 2.0625 0 L 2.0625 -17.203125 L 8.796875 -17.203125 C 10.191406 -17.203125 11.394531 -16.945312 12.40625 -16.4375 C 13.425781 -15.9375 14.21875 -15.21875 14.78125 -14.28125 C 15.34375 -13.34375 15.625 -12.242188 15.625 -10.984375 C 15.625 -9.742188 15.34375 -8.65625 14.78125 -7.71875 C 14.21875 -6.78125 13.425781 -6.054688 12.40625 -5.546875 C 11.394531 -5.046875 10.191406 -4.796875 8.796875 -4.796875 L 5.96875 -4.796875 L 5.96875 0 Z M 5.953125 -8.15625 L 8.484375 -8.15625 C 9.492188 -8.15625 10.273438 -8.394531 10.828125 -8.875 C 11.378906 -9.363281 11.65625 -10.0625 11.65625 -10.96875 C 11.65625 -11.863281 11.378906 -12.554688 10.828125 -13.046875 C 10.273438 -13.535156 9.492188 -13.78125 8.484375 -13.78125 L 5.953125 -13.78125 Z M 5.953125 -8.15625 "/></g></g></g><g fill="#ffffff" fill-opacity="1"><g transform="translate(129.641719, 26.684639)"><g><path d="M 2.0625 0 L 2.0625 -17.203125 L 5.96875 -17.203125 L 5.96875 0 Z M 2.0625 0 "/></g></g></g><g fill="#ffffff" fill-opacity="1"><g transform="translate(138.042623, 26.684639)"><g><path d="M 6.1875 0 L 6.1875 -13.546875 L 0.734375 -13.546875 L 0.734375 -17.203125 L 15.5625 -17.203125 L 15.5625 -13.546875 L 10.109375 -13.546875 L 10.109375 0 Z M 6.1875 0 "/></g></g></g><g fill="#ffffff" fill-opacity="1"><g transform="translate(154.696914, 26.684639)"><g><path d="M 0.21875 0 L 7.046875 -17.203125 L 10.890625 -17.203125 L 17.71875 0 L 13.546875 0 L 12.390625 -2.96875 L 5.546875 -2.96875 L 4.40625 0 Z M 6.5625 -6.046875 L 11.40625 -6.046875 L 8.96875 -12.34375 Z M 6.5625 -6.046875 "/></g></g></g><g fill="#ffffff" fill-opacity="1"><g transform="translate(172.996964, 26.684639)"><g><path d="M 2.0625 0 L 2.0625 -17.203125 L 5.96875 -17.203125 L 5.96875 -3.65625 L 13.5 -3.65625 L 13.5 0 Z M 2.0625 0 "/></g></g></g></g></g><g transform="matrix(1, 0, 0, 1, 407, 347)"><g clip-path="url(#a9254bf1aa)"><g fill="#ffc60a" fill-opacity="1"><g transform="translate(0.0787428, 106.058155)"><g><path d="M 83.375 -87.46875 C 92.09375 -78.132812 96.453125 -65.492188 96.453125 -49.546875 C 96.453125 -33.691406 92.09375 -21.050781 83.375 -11.625 C 74.738281 -2.195312 63.679688 2.515625 50.203125 2.515625 C 36.734375 2.515625 25.632812 -2.195312 16.90625 -11.625 C 8.28125 -21.050781 3.96875 -33.691406 3.96875 -49.546875 C 3.96875 -65.398438 8.28125 -78.039062 16.90625 -87.46875 C 25.632812 -96.894531 36.734375 -101.609375 50.203125 -101.609375 C 63.679688 -101.609375 74.738281 -96.894531 83.375 -87.46875 Z M 67.390625 -22.859375 C 71.785156 -29.378906 73.984375 -38.273438 73.984375 -49.546875 C 73.984375 -60.816406 71.785156 -69.710938 67.390625 -76.234375 C 63.066406 -82.660156 57.335938 -85.875 50.203125 -85.875 C 43.066406 -85.875 37.34375 -82.660156 33.03125 -76.234375 C 28.625 -69.710938 26.421875 -60.816406 26.421875 -49.546875 C 26.421875 -38.273438 28.625 -29.378906 33.03125 -22.859375 C 37.34375 -16.429688 43.066406 -13.21875 50.203125 -13.21875 C 57.335938 -13.21875 63.066406 -16.429688 67.390625 -22.859375 Z M 67.390625 -22.859375 "/></g></g></g><g fill="#ffc60a" fill-opacity="1"><g transform="translate(94.161102, 106.058155)"><g/></g></g></g></g><g transform="matrix(1, 0, 0, 1, 379, 515)"><g clip-path="url(#16e1c18e66)"><g fill="#ffffff" fill-opacity="1"><g transform="translate(0.767934, 21.957047)"><g><path d="M 7.609375 0.265625 C 6.742188 0.265625 5.957031 0.0976562 5.25 -0.234375 C 4.539062 -0.578125 3.953125 -1.039062 3.484375 -1.625 L 3.28125 0 L 1.875 0 L 1.875 -14.96875 L 3.578125 -14.96875 L 3.578125 -9 C 4.046875 -9.550781 4.628906 -9.976562 5.328125 -10.28125 C 6.023438 -10.59375 6.785156 -10.75 7.609375 -10.75 C 8.640625 -10.75 9.554688 -10.507812 10.359375 -10.03125 C 11.160156 -9.5625 11.789062 -8.914062 12.25 -8.09375 C 12.707031 -7.269531 12.9375 -6.320312 12.9375 -5.25 C 12.9375 -4.1875 12.707031 -3.238281 12.25 -2.40625 C 11.789062 -1.582031 11.160156 -0.929688 10.359375 -0.453125 C 9.554688 0.0234375 8.640625 0.265625 7.609375 0.265625 Z M 3.515625 -5.25 C 3.515625 -4.5 3.679688 -3.828125 4.015625 -3.234375 C 4.347656 -2.648438 4.800781 -2.191406 5.375 -1.859375 C 5.957031 -1.535156 6.625 -1.375 7.375 -1.375 C 8.144531 -1.375 8.816406 -1.535156 9.390625 -1.859375 C 9.972656 -2.191406 10.425781 -2.648438 10.75 -3.234375 C 11.070312 -3.828125 11.234375 -4.5 11.234375 -5.25 C 11.234375 -6.007812 11.070312 -6.679688 10.75 -7.265625 C 10.425781 -7.847656 9.972656 -8.304688 9.390625 -8.640625 C 8.816406 -8.972656 8.144531 -9.140625 7.375 -9.140625 C 6.625 -9.140625 5.957031 -8.972656 5.375 -8.640625 C 4.800781 -8.304688 4.347656 -7.847656 4.015625 -7.265625 C 3.679688 -6.679688 3.515625 -6.007812 3.515625 -5.25 Z M 3.515625 -5.25 "/></g></g></g><g fill="#ffffff" fill-opacity="1"><g transform="translate(15.0584, 21.957047)"><g><path d="M 1.515625 4.046875 L 1.515625 2.453125 L 2.546875 2.453125 C 3.222656 2.453125 3.710938 2.351562 4.015625 2.15625 C 4.328125 1.957031 4.59375 1.566406 4.8125 0.984375 L 5.296875 -0.25 L 0.328125 -10.5 L 2.21875 -10.5 L 4.59375 -5.546875 L 6.125 -2.28125 L 7.40625 -5.546875 L 9.359375 -10.5 L 11.15625 -10.5 L 6.34375 1.640625 C 6.101562 2.273438 5.820312 2.765625 5.5 3.109375 C 5.1875 3.460938 4.804688 3.707031 4.359375 3.84375 C 3.921875 3.976562 3.367188 4.046875 2.703125 4.046875 Z M 1.515625 4.046875 "/></g></g></g></g></g></svg>